<svg xmlns="http://www.w3.org/2000/svg" viewBox="0 0 256 256" enable-background="new 0 0 256 256"><style type="text/css">.st0{fill:#4F9AD4;}</style><path class="st0" d="M40.4 108.7s-1.8-4.4-1.8-9.8l1.8-9.8c-.3 0-37.1 9.8-37.1 9.8s36.8 9.8 37.1 9.8zM214.9 89s1.8 4.4 1.8 9.8l-1.8 9.8c.3 0 37.1-9.8 37.1-9.8s-36.8-9.8-37.1-9.8z"/><circle class="st0" cx="89.5" cy="98.2" r="11.1"/><path class="st0" d="M195.6 84.5c1.4 0 2.6 1.2 2.6 2.6v23.4c0 1.4-1.2 2.6-2.6 2.6h-135.9c-1.4 0-2.6-1.2-2.6-2.6v-23.4c0-1.4 1.2-2.6 2.6-2.6h135.9m0-13.3h-135.9c-8.8 0-15.9 7.1-15.9 15.9v23.4c0 8.8 7.1 15.9 15.9 15.9h135.9c8.8 0 15.9-7.1 15.9-15.9v-23.4c0-8.8-7.1-15.9-15.9-15.9zM126.7 166.6c-20.1 0-37.1 30.4-37.1 66.4 0 4.1.2 8.1.6 12 10.3 3.3 22.9 5.2 36.5 5.2s26.2-1.9 36.5-5.2c.4-3.9.7-7.9.7-12-.1-36-17.1-66.4-37.2-66.4zm-22.5 64.8c0 2.4-2 4.4-4.4 4.4-2.4 0-4.4-2-4.4-4.4v-15.3c0-2.4 2-4.4 4.4-4.4 2.4 0 4.4 2 4.4 4.4v15.3zm17.7 0c0 2.4-2 4.4-4.4 4.4s-4.4-2-4.4-4.4v-15.3c0-2.4 2-4.4 4.4-4.4 2.4 0 4.4 2 4.4 4.4v15.3zm17.6 0c0 2.4-2 4.4-4.4 4.4-2.4 0-4.4-2-4.4-4.4v-15.3c0-2.4 2-4.4 4.4-4.4s4.4 2 4.4 4.4v15.3zm17.7 0c0 2.4-2 4.4-4.4 4.4-2.4 0-4.4-2-4.4-4.4v-15.3c0-2.4 2-4.4 4.4-4.4 2.4 0 4.4 2 4.4 4.4v15.3zM63.3 115.1v11.4h91.8c1.7 0 3.1 1.4 3.1 3.1 0 1.7-1.4 3.1-3.1 3.1h-91.8v89.3c0 7.6 6.8 14.5 17.7 19.6-.2-2.8-.3-5.6-.3-8.5 0-42.2 20.2-75.2 45.9-75.2 25.8 0 45.9 33 45.9 75.2 0 2.9-.1 5.7-.3 8.5 10.9-5.1 17.7-12 17.7-19.6v-106.9h-126.6zM126.7 57.6c-2.2 0-4-1.8-4-4s1.8-4 4-4h62.8c-.7-2.2-1.5-4.4-2.5-6.5h-37.3c-3.7 0-6.7-3-6.7-6.7s3-6.7 6.7-6.7h29.6c-12.1-16.3-31.2-26.6-52.6-26.6-33.8.1-61.5 25.3-65.7 59.6h131.4c-.2-1.7-.5-3.4-.8-5.1h-64.9zm4.5-28.1c3.8 0 7 3.1 7 7 0 3.8-3.1 7-7 7-3.8 0-7-3.1-7-7 .1-3.9 3.2-7 7-7z"/></svg>